<?xml version="1.0" encoding="UTF-8"?>
<svg width="26px" height="26px" viewBox="0 0 26 26" version="1.1" xmlns="http://www.w3.org/2000/svg" xmlns:xlink="http://www.w3.org/1999/xlink">
    <title>streamline-icon-shopping-cart-empty-1@24x24</title>
    <g id="1440px" stroke="none" stroke-width="1" fill="none" fill-rule="evenodd" stroke-linecap="round" stroke-linejoin="round">
        <g id="streamline-icon-shopping-cart-empty-1@24x24" transform="translate(1.000000, 1.000000)" stroke="#737373" stroke-width="1.5">
            <path d="M3.707,5.5 L22.345,5.5 C22.897,5.5 23.345,5.948 23.345,6.5 C23.345,6.589 23.333,6.677 23.31,6.763 L21.257,14.289 C20.901,15.594 19.716,16.5 18.363,16.5 L6.023,16.5" id="Path"></path>
            <path d="M0.654,0.5 L1.032,0.5 C1.978,0.5 2.794,1.163 2.989,2.088 L6.32,17.912 C6.515,18.837 7.331,19.5 8.277,19.5 L19.654,19.5" id="Path"></path>
            <path d="M7.654,20.5 C8.482,20.5 9.154,21.172 9.154,22 C9.154,22.828 8.482,23.5 7.654,23.5 C6.826,23.5 6.154,22.828 6.154,22 C6.154,21.172 6.826,20.5 7.654,20.5 Z" id="Path"></path>
            <path d="M17.654,20.5 C18.482,20.5 19.154,21.172 19.154,22 C19.154,22.828 18.482,23.5 17.654,23.5 C16.826,23.5 16.154,22.828 16.154,22 C16.154,21.172 16.826,20.5 17.654,20.5 Z" id="Path"></path>
        </g>
    </g>
</svg>